<?xml version="1.0" encoding="utf-8"?>
<!-- Generator: Adobe Illustrator 20.1.0, SVG Export Plug-In . SVG Version: 6.00 Build 0)  -->
<svg version="1.1" id="Layer_1" xmlns="http://www.w3.org/2000/svg" xmlns:xlink="http://www.w3.org/1999/xlink" x="0px" y="0px"
	 viewBox="0 0 800 600" style="enable-background:new 0 0 800 600;" xml:space="preserve">
<style type="text/css">
	.st0{fill:#27AAE1;}
	.st1{fill:#BE1E2D;}
	.st2{fill:#BCBEC0;}
	.st3{fill:#8B5E3C;}
	.st4{fill:#006838;}
	.st5{fill:#8DC63F;}
	.st6{fill:#C49A6C;}
	.st7{fill:#A97C50;}
</style>
<rect x="-9" y="-13" class="st0" width="809" height="522"/>
<rect y="527" class="st3" width="800" height="73"/>
<rect y="518.1" class="st4" width="18" height="18"/>
<rect x="9" y="509" class="st4" width="18" height="18"/>
<rect x="27" y="509" class="st4" width="18" height="18"/>
<rect x="-9" y="509" class="st5" width="18" height="9"/>
<rect x="45" y="509" class="st5" width="18" height="9"/>
<rect x="99" y="509" class="st5" width="18" height="9"/>
<rect x="171" y="572" class="st6" width="18" height="9"/>
<rect x="513" y="572" class="st6" width="18" height="9"/>
<rect x="782" y="591" class="st6" width="18" height="9"/>
<rect x="27" y="527" class="st6" width="18" height="9"/>
<rect x="702" y="554" class="st6" width="18" height="9"/>
<rect x="414" y="554" class="st7" width="18" height="9"/>
<rect x="639" y="572" class="st7" width="18" height="9"/>
<rect x="72" y="554" class="st7" width="18" height="9"/>
<rect x="252" y="545" class="st7" width="18" height="9"/>
<rect x="567" y="527" class="st7" width="18" height="9"/>
<rect x="153" y="509" class="st5" width="18" height="9"/>
<rect x="207" y="509" class="st5" width="18" height="9"/>
<rect x="225" y="509" class="st5" width="18" height="9"/>
<rect x="261" y="509" class="st5" width="18" height="9"/>
<rect x="333" y="509" class="st5" width="18" height="9"/>
<rect x="369" y="509" class="st5" width="18" height="9"/>
<rect x="387" y="509" class="st5" width="18" height="9"/>
<rect x="423" y="509" class="st5" width="18" height="9"/>
<rect x="45" y="518" class="st4" width="18" height="18"/>
<rect x="63" y="518" class="st4" width="18" height="18"/>
<rect x="81" y="500" class="st4" width="18" height="27"/>
<rect x="135" y="509" class="st4" width="18" height="18"/>
<rect x="189" y="509" class="st4" width="18" height="18"/>
<rect x="261" y="518" class="st4" width="18" height="18"/>
<rect x="243" y="509" class="st4" width="18" height="18"/>
<rect x="171" y="509" class="st4" width="18" height="18"/>
<rect x="117" y="509" class="st4" width="18" height="18"/>
<rect x="153" y="518" class="st4" width="18" height="18"/>
<rect x="207" y="518" class="st4" width="18" height="18"/>
<rect x="225" y="518" class="st4" width="18" height="18"/>
<rect x="297" y="509" class="st4" width="18" height="18"/>
<rect x="333" y="518" class="st4" width="18" height="18"/>
<rect x="351" y="509" class="st4" width="18" height="18"/>
<rect x="369" y="518" class="st4" width="18" height="18"/>
<rect x="387" y="518" class="st4" width="18" height="18"/>
<rect x="405" y="509" class="st4" width="18" height="18"/>
<rect x="423" y="518" class="st4" width="18" height="18"/>
<rect x="441" y="509" class="st4" width="18" height="18"/>
<rect x="459" y="518" class="st4" width="18" height="18"/>
<rect x="477" y="509" class="st4" width="18" height="18"/>
<rect x="495" y="509" class="st4" width="18" height="18"/>
<rect x="513" y="509" class="st4" width="18" height="18"/>
<rect x="531" y="509" class="st4" width="18" height="18"/>
<rect x="549" y="518" class="st4" width="18" height="18"/>
<rect x="567" y="509" class="st4" width="18" height="18"/>
<rect x="585" y="509" class="st4" width="18" height="18"/>
<rect x="603" y="518" class="st4" width="18" height="18"/>
<rect x="621" y="518" class="st4" width="18" height="18"/>
<rect x="639" y="509" class="st4" width="18" height="18"/>
<rect x="657" y="518" class="st4" width="18" height="18"/>
<rect x="675" y="509" class="st4" width="18" height="18"/>
<rect x="693" y="500" class="st4" width="18" height="27"/>
<rect x="711" y="509" class="st4" width="18" height="18"/>
<rect x="729" y="509" class="st4" width="18" height="18"/>
<rect x="747" y="518" class="st4" width="18" height="18"/>
<rect x="765" y="518" class="st4" width="18" height="18"/>
<rect x="783" y="518" class="st5" width="18" height="18"/>
<rect x="315" y="500" class="st4" width="18" height="27"/>
<rect x="279" y="518" class="st4" width="18" height="18"/>
<rect x="99" y="518" class="st4" width="18" height="18"/>
<rect x="459" y="509" class="st5" width="18" height="9"/>
<rect x="513" y="509" class="st5" width="18" height="9"/>
<rect x="549" y="509" class="st5" width="18" height="9"/>
<rect x="603" y="509" class="st5" width="18" height="9"/>
<rect x="621" y="509" class="st5" width="18" height="9"/>
<rect x="657" y="509" class="st5" width="18" height="9"/>
<rect x="711" y="509" class="st5" width="18" height="9"/>
<rect x="747" y="509" class="st5" width="18" height="9"/>
<rect x="765" y="509" class="st5" width="18" height="9"/>
<rect x="782" y="509" class="st5" width="18" height="9"/>
<rect x="279" y="509" class="st5" width="18" height="18"/>
<rect x="63" y="509" class="st5" width="18" height="18"/>
</svg>
