<?xml version="1.0" encoding="utf-8"?>
<!-- Generator: Adobe Illustrator 20.1.0, SVG Export Plug-In . SVG Version: 6.00 Build 0)  -->
<svg version="1.1" id="Layer_1" xmlns="http://www.w3.org/2000/svg" xmlns:xlink="http://www.w3.org/1999/xlink" x="0px" y="0px"
	 viewBox="0 0 45 243" style="enable-background:new 0 0 45 243;" xml:space="preserve">
<style type="text/css">
	.st0{display:none;}
	.st1{fill:#BE1E2D;}
	.st2{fill:#FFFFFF;}
	.st3{fill:#780512;}
</style>
<g id="Inspo">
	<g id="_x34_6NslP_1_" class="st0">
		
			<image style="display:inline;overflow:visible;enable-background:new    ;" width="478" height="170" id="_x34_6NslP_2_" xlink:href="39F91BB8461D8C01.jpeg"  transform="matrix(2.3975 0 0 2.3902 -521.5 -90)">
		</image>
	</g>
</g>
<g id="game-over">
</g>
<g id="peter">
</g>
<g id="blood">
	<g>
		<rect x="-170.5" y="63" width="9" height="9"/>
		<rect x="-170.5" y="54" width="9" height="9"/>
		<rect x="-170.5" y="81" width="9" height="9"/>
		<rect x="-170.5" y="72" width="9" height="9"/>
		<rect x="-170.5" y="90" width="9" height="9"/>
		<rect x="-170.5" y="108" width="9" height="9"/>
		<rect x="-170.5" y="99" width="9" height="9"/>
		<rect x="-170.5" y="117" width="9" height="9"/>
		<rect x="-170.5" y="135" width="9" height="9"/>
		<rect x="-170.5" y="126" width="9" height="9"/>
		<rect x="-170.5" y="144" width="9" height="9"/>
		<rect x="-170.5" y="162" width="9" height="9"/>
		<rect x="-170.5" y="153" width="9" height="9"/>
		<rect x="-170.5" y="180" width="9" height="9"/>
		<rect x="-170.5" y="171" width="9" height="9"/>
		<rect x="-170.5" y="189" width="9" height="9"/>
		<rect x="-170.5" y="207" width="9" height="9"/>
		<rect x="-161.5" y="216" width="9" height="9"/>
		<rect x="-170.5" y="198" width="9" height="9"/>
		<rect x="-125.5" y="180" width="9" height="9"/>
		<rect x="-125.5" y="171" width="9" height="9"/>
		<rect x="-125.5" y="189" width="9" height="9"/>
		<rect x="-125.5" y="207" width="9" height="9"/>
		<rect x="-143.5" y="225" width="9" height="9"/>
		<rect x="-134.5" y="216" width="9" height="9"/>
		<rect x="-152.5" y="225" width="9" height="9"/>
		<rect x="-125.5" y="198" width="9" height="9"/>
		<rect x="-125.5" y="63" width="9" height="9"/>
		<rect x="-125.5" y="54" width="9" height="9"/>
		<rect x="-125.5" y="81" width="9" height="9"/>
		<rect x="-125.5" y="72" width="9" height="9"/>
		<rect x="-125.5" y="90" width="9" height="9"/>
		<rect x="-125.5" y="108" width="9" height="9"/>
		<rect x="-125.5" y="99" width="9" height="9"/>
		<rect x="-125.5" y="117" width="9" height="9"/>
		<rect x="-125.5" y="135" width="9" height="9"/>
		<rect x="-125.5" y="126" width="9" height="9"/>
		<rect x="-125.5" y="144" width="9" height="9"/>
		<rect x="-125.5" y="162" width="9" height="9"/>
		<rect x="-125.5" y="153" width="9" height="9"/>
		<rect x="-152.5" y="63" class="st1" width="9" height="9"/>
		<rect x="-152.5" y="81" class="st1" width="9" height="9"/>
		<rect x="-152.5" y="72" class="st1" width="9" height="9"/>
		<rect x="-152.5" y="90" class="st2" width="9" height="9"/>
		<rect x="-152.5" y="108" class="st2" width="9" height="9"/>
		<rect x="-152.5" y="99" class="st2" width="9" height="9"/>
		<rect x="-152.5" y="117" class="st2" width="9" height="9"/>
		<rect x="-152.5" y="135" class="st1" width="9" height="9"/>
		<rect x="-152.5" y="126" class="st1" width="9" height="9"/>
		<rect x="-152.5" y="144" class="st1" width="9" height="9"/>
		<rect x="-152.5" y="162" class="st1" width="9" height="9"/>
		<rect x="-152.5" y="153" class="st1" width="9" height="9"/>
		<rect x="-161.5" y="63" class="st1" width="9" height="9"/>
		<rect x="-161.5" y="81" class="st1" width="9" height="9"/>
		<rect x="-161.5" y="72" class="st1" width="9" height="9"/>
		<rect x="-161.5" y="90" class="st1" width="9" height="9"/>
		<rect x="-161.5" y="108" class="st1" width="9" height="9"/>
		<rect x="-161.5" y="99" class="st1" width="9" height="9"/>
		<rect x="-161.5" y="117" class="st1" width="9" height="9"/>
		<rect x="-161.5" y="135" class="st1" width="9" height="9"/>
		<rect x="-161.5" y="126" class="st1" width="9" height="9"/>
		<rect x="-161.5" y="144" class="st1" width="9" height="9"/>
		<rect x="-161.5" y="162" class="st1" width="9" height="9"/>
		<rect x="-161.5" y="153" class="st1" width="9" height="9"/>
		<rect x="-161.5" y="180" class="st1" width="9" height="9"/>
		<rect x="-161.5" y="171" class="st1" width="9" height="9"/>
		<rect x="-161.5" y="189" class="st1" width="9" height="9"/>
		<rect x="-161.5" y="207" class="st1" width="9" height="9"/>
		<rect x="-161.5" y="198" class="st1" width="9" height="9"/>
		<rect x="-143.5" y="180" class="st1" width="9" height="9"/>
		<rect x="-143.5" y="171" class="st1" width="9" height="9"/>
		<rect x="-143.5" y="189" class="st1" width="9" height="9"/>
		<rect x="-143.5" y="207" class="st1" width="9" height="9"/>
		<rect x="-143.5" y="216" class="st1" width="9" height="9"/>
		<rect x="-152.5" y="216" class="st1" width="9" height="9"/>
		<rect x="-143.5" y="198" class="st1" width="9" height="9"/>
		<rect x="-152.5" y="180" class="st1" width="9" height="9"/>
		<rect x="-152.5" y="171" class="st1" width="9" height="9"/>
		<rect x="-152.5" y="189" class="st1" width="9" height="9"/>
		<rect x="-152.5" y="207" class="st1" width="9" height="9"/>
		<rect x="-152.5" y="198" class="st1" width="9" height="9"/>
		<rect x="-134.5" y="180" class="st1" width="9" height="9"/>
		<rect x="-134.5" y="171" class="st1" width="9" height="9"/>
		<rect x="-134.5" y="189" class="st1" width="9" height="9"/>
		<rect x="-134.5" y="207" class="st1" width="9" height="9"/>
		<rect x="-134.5" y="198" class="st1" width="9" height="9"/>
		<rect x="-143.5" y="63" class="st1" width="9" height="9"/>
		<rect x="-143.5" y="81" class="st1" width="9" height="9"/>
		<rect x="-143.5" y="72" class="st1" width="9" height="9"/>
		<rect x="-143.5" y="90" class="st1" width="9" height="9"/>
		<rect x="-143.5" y="108" class="st1" width="9" height="9"/>
		<rect x="-143.5" y="99" class="st1" width="9" height="9"/>
		<rect x="-143.5" y="117" class="st1" width="9" height="9"/>
		<rect x="-143.5" y="135" class="st1" width="9" height="9"/>
		<rect x="-143.5" y="126" class="st1" width="9" height="9"/>
		<rect x="-143.5" y="144" class="st1" width="9" height="9"/>
		<rect x="-143.5" y="162" class="st1" width="9" height="9"/>
		<rect x="-143.5" y="153" class="st1" width="9" height="9"/>
		<rect x="-134.5" y="63" class="st1" width="9" height="9"/>
		<rect x="-134.5" y="81" class="st1" width="9" height="9"/>
		<rect x="-134.5" y="72" class="st1" width="9" height="9"/>
		<rect x="-134.5" y="90" class="st1" width="9" height="9"/>
		<rect x="-134.5" y="108" class="st1" width="9" height="9"/>
		<rect x="-134.5" y="99" class="st1" width="9" height="9"/>
		<rect x="-134.5" y="117" class="st1" width="9" height="9"/>
		<rect x="-134.5" y="135" class="st1" width="9" height="9"/>
		<rect x="-134.5" y="126" class="st1" width="9" height="9"/>
		<rect x="-134.5" y="144" class="st1" width="9" height="9"/>
		<rect x="-134.5" y="162" class="st1" width="9" height="9"/>
		<rect x="-134.5" y="153" class="st1" width="9" height="9"/>
	</g>
</g>
<rect x="333.5" y="108" class="st1" width="9" height="9"/>
<rect x="315.5" y="108" class="st1" width="9" height="9"/>
<rect x="324.5" y="108" class="st1" width="9" height="9"/>
<rect x="306.5" y="108" class="st2" width="9" height="9"/>
<rect x="288.5" y="108" class="st2" width="9" height="9"/>
<rect x="297.5" y="108" class="st2" width="9" height="9"/>
<rect x="279.5" y="108" class="st2" width="9" height="9"/>
<rect x="261.5" y="108" class="st1" width="9" height="9"/>
<rect x="270.5" y="108" class="st1" width="9" height="9"/>
<rect x="252.5" y="108" class="st1" width="9" height="9"/>
<rect x="333.5" y="99" class="st1" width="9" height="9"/>
<rect x="315.5" y="99" class="st1" width="9" height="9"/>
<rect x="324.5" y="99" class="st1" width="9" height="9"/>
<rect x="306.5" y="99" class="st1" width="9" height="9"/>
<rect x="288.5" y="99" class="st1" width="9" height="9"/>
<rect x="297.5" y="99" class="st1" width="9" height="9"/>
<rect x="279.5" y="99" class="st1" width="9" height="9"/>
<rect x="261.5" y="99" class="st1" width="9" height="9"/>
<rect x="270.5" y="99" class="st1" width="9" height="9"/>
<rect x="252.5" y="99" class="st1" width="9" height="9"/>
<rect x="234.5" y="72" class="st1" width="9" height="9"/>
<rect x="234.5" y="63" class="st1" width="9" height="9"/>
<rect x="234.5" y="81" class="st1" width="9" height="9"/>
<g id="heart">
</g>
<g>
	<rect x="-71.5" y="180" width="9" height="9"/>
	<rect x="-71.5" y="171" width="9" height="9"/>
	<rect x="-71.5" y="162" width="9" height="9"/>
	<rect x="-71.5" y="198" width="9" height="9"/>
	<rect x="-71.5" y="189" width="9" height="9"/>
	<rect x="-71.5" y="207" width="9" height="9"/>
	<rect x="-62.5" y="225" width="9" height="9"/>
	<rect x="-53.5" y="234" width="9" height="9"/>
	<rect x="-71.5" y="216" width="9" height="9"/>
	<rect x="-35.5" y="189" width="9" height="9"/>
	<rect x="-35.5" y="180" width="9" height="9"/>
	<rect x="-35.5" y="198" width="9" height="9"/>
	<rect x="-35.5" y="216" width="9" height="9"/>
	<rect x="-53.5" y="234" width="9" height="9"/>
	<rect x="-44.5" y="225" width="9" height="9"/>
	<rect x="-35.5" y="207" width="9" height="9"/>
	<rect x="-35.5" y="72" width="9" height="9"/>
	<rect x="-35.5" y="63" width="9" height="9"/>
	<rect x="-35.5" y="90" width="9" height="9"/>
	<rect x="-35.5" y="81" width="9" height="9"/>
	<rect x="-35.5" y="99" width="9" height="9"/>
	<rect x="-35.5" y="117" width="9" height="9"/>
	<rect x="-35.5" y="108" width="9" height="9"/>
	<rect x="-35.5" y="126" width="9" height="9"/>
	<rect x="-35.5" y="144" width="9" height="9"/>
	<rect x="-35.5" y="135" width="9" height="9"/>
	<rect x="-35.5" y="153" width="9" height="9"/>
	<rect x="-35.5" y="171" width="9" height="9"/>
	<rect x="-35.5" y="162" width="9" height="9"/>
	<rect x="-44.5" y="36" class="st1" width="9" height="9"/>
	<rect x="-44.5" y="27" class="st1" width="9" height="9"/>
	<rect x="-44.5" y="45" class="st1" width="9" height="9"/>
	<rect x="-44.5" y="63" class="st1" width="9" height="9"/>
	<rect x="-44.5" y="54" class="st1" width="9" height="9"/>
	<rect x="-53.5" y="189" class="st1" width="9" height="9"/>
	<rect x="-53.5" y="180" class="st1" width="9" height="9"/>
	<rect x="-53.5" y="198" class="st1" width="9" height="9"/>
	<rect x="-53.5" y="216" class="st1" width="9" height="9"/>
	<rect x="-53.5" y="225" class="st1" width="9" height="9"/>
	<rect x="-35.5" y="54" class="st1" width="9" height="9"/>
	<rect x="-53.5" y="207" class="st1" width="9" height="9"/>
	<rect x="-35.5" y="18" class="st1" width="9" height="9"/>
	<rect x="-35.5" y="27" class="st1" width="9" height="9"/>
	<rect x="-35.5" y="45" class="st1" width="9" height="9"/>
	<rect x="-35.5" y="36" class="st1" width="9" height="9"/>
	<rect x="-44.5" y="189" class="st1" width="9" height="9"/>
	<rect x="-44.5" y="180" class="st1" width="9" height="9"/>
	<rect x="-44.5" y="198" class="st1" width="9" height="9"/>
	<rect x="-44.5" y="216" class="st1" width="9" height="9"/>
	<rect x="-44.5" y="207" class="st1" width="9" height="9"/>
	<rect x="-53.5" y="72" class="st1" width="9" height="9"/>
	<rect x="-53.5" y="90" class="st1" width="9" height="9"/>
	<rect x="-53.5" y="81" class="st1" width="9" height="9"/>
	<rect x="-53.5" y="99" class="st1" width="9" height="9"/>
	<rect x="-53.5" y="117" class="st1" width="9" height="9"/>
	<rect x="-53.5" y="108" class="st1" width="9" height="9"/>
	<rect x="-53.5" y="126" class="st1" width="9" height="9"/>
	<rect x="-53.5" y="144" class="st1" width="9" height="9"/>
	<rect x="-53.5" y="135" class="st1" width="9" height="9"/>
	<rect x="-53.5" y="153" class="st1" width="9" height="9"/>
	<rect x="-53.5" y="171" class="st1" width="9" height="9"/>
	<rect x="-53.5" y="162" class="st1" width="9" height="9"/>
	<rect x="-35.5" class="st1" width="9" height="9"/>
	<rect x="-53.5" y="45" class="st1" width="9" height="9"/>
	<rect x="-53.5" y="63" class="st1" width="9" height="9"/>
	<rect x="-53.5" y="54" class="st1" width="9" height="9"/>
	<rect x="-44.5" y="72" class="st1" width="9" height="9"/>
	<rect x="-44.5" y="90" class="st1" width="9" height="9"/>
	<rect x="-44.5" y="81" class="st1" width="9" height="9"/>
	<rect x="-44.5" y="99" class="st1" width="9" height="9"/>
	<rect x="-44.5" y="117" class="st1" width="9" height="9"/>
	<rect x="-44.5" y="108" class="st1" width="9" height="9"/>
	<rect x="-44.5" y="126" class="st1" width="9" height="9"/>
	<rect x="-44.5" y="144" class="st1" width="9" height="9"/>
	<rect x="-44.5" y="135" class="st1" width="9" height="9"/>
	<rect x="-44.5" y="153" class="st1" width="9" height="9"/>
	<rect x="-44.5" y="171" class="st1" width="9" height="9"/>
	<rect x="-44.5" y="162" class="st1" width="9" height="9"/>
	<g>
		<rect x="-71.5" y="72" width="9" height="9"/>
		<rect x="-71.5" y="63" width="9" height="9"/>
		<rect x="-71.5" y="90" width="9" height="9"/>
		<rect x="-71.5" y="81" width="9" height="9"/>
		<rect x="-71.5" y="99" width="9" height="9"/>
		<rect x="-71.5" y="117" width="9" height="9"/>
		<rect x="-71.5" y="108" width="9" height="9"/>
		<rect x="-71.5" y="126" width="9" height="9"/>
		<rect x="-71.5" y="144" width="9" height="9"/>
		<rect x="-71.5" y="135" width="9" height="9"/>
		<rect x="-71.5" y="153" width="9" height="9"/>
	</g>
</g>
<g>
	<rect y="180" width="9" height="9"/>
	<rect y="171" width="9" height="9"/>
	<rect y="162" width="9" height="9"/>
	<rect y="198" width="9" height="9"/>
	<rect y="189" width="9" height="9"/>
	<rect y="207" width="9" height="9"/>
	<rect x="9" y="225" width="9" height="9"/>
	<rect x="18" y="234" width="9" height="9"/>
	<rect y="216" width="9" height="9"/>
	<rect x="36" y="189" width="9" height="9"/>
	<rect x="36" y="180" width="9" height="9"/>
	<rect x="36" y="198" width="9" height="9"/>
	<rect x="36" y="216" width="9" height="9"/>
	<rect x="18" y="234" width="9" height="9"/>
	<rect x="27" y="225" width="9" height="9"/>
	<rect x="36" y="207" width="9" height="9"/>
	<rect x="36" y="72" width="9" height="9"/>
	<rect x="36" y="63" width="9" height="9"/>
	<rect x="36" y="90" width="9" height="9"/>
	<rect x="36" y="81" width="9" height="9"/>
	<rect x="36" y="99" width="9" height="9"/>
	<rect x="36" y="117" width="9" height="9"/>
	<rect x="36" y="108" width="9" height="9"/>
	<rect x="36" y="126" width="9" height="9"/>
	<rect x="36" y="144" width="9" height="9"/>
	<rect x="36" y="135" width="9" height="9"/>
	<rect x="36" y="153" width="9" height="9"/>
	<rect x="36" y="171" width="9" height="9"/>
	<rect x="36" y="162" width="9" height="9"/>
	<rect x="27" y="36" class="st3" width="9" height="9"/>
	<rect x="27" y="27" class="st3" width="9" height="9"/>
	<rect x="27" y="45" class="st3" width="9" height="9"/>
	<rect x="27" y="63" class="st3" width="9" height="9"/>
	<rect x="27" y="54" class="st3" width="9" height="9"/>
	<rect x="18" y="189" class="st3" width="9" height="9"/>
	<rect x="18" y="180" class="st3" width="9" height="9"/>
	<rect x="18" y="198" class="st3" width="9" height="9"/>
	<rect x="18" y="216" class="st3" width="9" height="9"/>
	<rect x="18" y="225" class="st3" width="9" height="9"/>
	<rect x="36" y="54" class="st3" width="9" height="9"/>
	<rect x="18" y="207" class="st3" width="9" height="9"/>
	<rect x="36" y="18" class="st3" width="9" height="9"/>
	<rect x="36" y="27" class="st3" width="9" height="9"/>
	<rect x="36" y="45" class="st3" width="9" height="9"/>
	<rect x="36" y="36" class="st3" width="9" height="9"/>
	<rect x="27" y="189" class="st3" width="9" height="9"/>
	<rect x="27" y="180" class="st3" width="9" height="9"/>
	<rect x="27" y="198" class="st3" width="9" height="9"/>
	<rect x="27" y="216" class="st3" width="9" height="9"/>
	<rect x="27" y="207" class="st3" width="9" height="9"/>
	<rect x="18" y="72" class="st3" width="9" height="9"/>
	<rect x="18" y="90" class="st3" width="9" height="9"/>
	<rect x="18" y="81" class="st3" width="9" height="9"/>
	<rect x="18" y="99" class="st3" width="9" height="9"/>
	<rect x="18" y="117" class="st3" width="9" height="9"/>
	<rect x="18" y="108" class="st3" width="9" height="9"/>
	<rect x="18" y="126" class="st3" width="9" height="9"/>
	<rect x="18" y="144" class="st3" width="9" height="9"/>
	<rect x="18" y="135" class="st3" width="9" height="9"/>
	<rect x="18" y="153" class="st3" width="9" height="9"/>
	<rect x="18" y="171" class="st3" width="9" height="9"/>
	<rect x="18" y="162" class="st3" width="9" height="9"/>
	<rect x="36" class="st3" width="9" height="9"/>
	<rect x="18" y="45" class="st3" width="9" height="9"/>
	<rect x="18" y="63" class="st3" width="9" height="9"/>
	<rect x="18" y="54" class="st3" width="9" height="9"/>
	<rect x="27" y="72" class="st3" width="9" height="9"/>
	<rect x="27" y="90" class="st3" width="9" height="9"/>
	<rect x="27" y="81" class="st3" width="9" height="9"/>
	<rect x="27" y="99" class="st3" width="9" height="9"/>
	<rect x="27" y="117" class="st3" width="9" height="9"/>
	<rect x="27" y="108" class="st3" width="9" height="9"/>
	<rect x="27" y="126" class="st3" width="9" height="9"/>
	<rect x="27" y="144" class="st3" width="9" height="9"/>
	<rect x="27" y="135" class="st3" width="9" height="9"/>
	<rect x="27" y="153" class="st3" width="9" height="9"/>
	<rect x="27" y="171" class="st3" width="9" height="9"/>
	<rect x="27" y="162" class="st3" width="9" height="9"/>
	<g>
		<rect y="72" width="9" height="9"/>
		<rect y="63" width="9" height="9"/>
		<rect y="90" width="9" height="9"/>
		<rect y="81" width="9" height="9"/>
		<rect y="99" width="9" height="9"/>
		<rect y="117" width="9" height="9"/>
		<rect y="108" width="9" height="9"/>
		<rect y="126" width="9" height="9"/>
		<rect y="144" width="9" height="9"/>
		<rect y="135" width="9" height="9"/>
		<rect y="153" width="9" height="9"/>
	</g>
</g>
<image style="overflow:visible;" width="25" height="80" xlink:href="old-blood.png"  transform="matrix(0.24 0 0 0.24 98 7)">
</image>
</svg>
